<?xml version="1.0" encoding="UTF-8" standalone="no"?>
<svg
   width="512"
   height="512"
   version="1.1"
   id="svg950"
   xmlns="http://www.w3.org/2000/svg"
   xmlns:svg="http://www.w3.org/2000/svg">
  <defs
     id="defs954" />
  <path
     fill="#141314"
     transform="scale(0.666667 0.666667)"
     d="M255.502 359.438L256.108 359.349C256.633 359.646 257.054 359.919 257.49 360.344C262.09 364.823 266.398 369.583 270.938 374.116C274.214 377.388 278.241 380.526 281.062 384.184C281.921 385.297 282.183 385.812 282.212 387.188C281.215 387.037 280.093 386.461 279.226 385.962C271.913 381.75 257.848 367.539 255.502 359.438Z"
     id="path922" />
  <path
     fill="#141314"
     transform="scale(0.666667 0.666667)"
     d="M306.146 354.151C305.799 354.532 305.482 354.876 305.062 355.177C301.147 357.985 276.494 359.216 270.852 358.98C268.35 358.875 265.82 358.29 263.363 357.823C264.623 356.951 265.919 355.972 267.443 355.647C272.926 354.478 279.441 354.817 285.058 354.355C291.728 353.806 299.178 352.065 305.816 352.636L306.146 354.151Z"
     id="path924" />
  <path
     fill="#141314"
     transform="scale(0.666667 0.666667)"
     d="M426.781 210.938L427.438 211.064C412.874 217.006 395.897 218.936 380.475 221.783C361.05 225.369 341.656 229.101 322.226 232.672C308.293 235.233 294.226 238.008 280.5 241.529C267.82 244.782 255.353 248.657 242.812 252.371L242.426 252.309L242.195 251.982C246.708 248.809 252.435 246.502 257.531 244.469C286.276 233 317.786 228.918 348.072 223.435C365.784 220.228 383.374 216.641 401.192 214.005C409.677 212.75 418.355 212.328 426.781 210.938Z"
     id="path926" />
  <path
     fill="#141314"
     transform="scale(0.666667 0.666667)"
     d="M522.49 499.654C528.854 499.381 535.762 499.881 541.786 502.12C543.319 502.69 545.927 503.592 546.641 505.125C543.828 507.553 533.272 504.939 529.504 504.782C526.018 504.637 522.492 504.74 519.026 505.129C512.141 505.901 505.45 508.319 499.398 511.64C480.934 521.774 468.475 540.282 455.263 556.125C450.285 562.094 445.236 568.453 438.603 572.666C432.891 576.295 426.278 578.105 419.8 579.847C413.896 581.111 406.25 583.02 400.191 582.202C398.41 581.962 396.644 581.59 395.55 580.125L395.812 579.244C397.703 578.512 400.238 578.614 402.274 578.422C408.616 577.826 414.863 576.385 420.97 574.61C425.43 573.313 430.022 571.888 434.063 569.55C439.708 566.283 443.855 561.599 448.022 556.682C452.914 550.911 457.491 544.878 462.334 539.064C472.9 526.381 485.656 511.087 501.125 504.522C507.875 501.657 515.228 500.314 522.49 499.654Z"
     id="path928" />
  <path
     fill="#141314"
     transform="scale(0.666667 0.666667)"
     d="M400.089 192.543C412.931 192.101 428.008 191.204 440.239 195.491C434.426 196.425 428.272 196.262 422.38 196.355C414.127 196.484 405.907 196.625 397.662 197.055C380.147 197.969 362.752 199.459 345.311 201.293C328.712 203.038 311.929 204.901 295.591 208.388C284.509 210.754 273.475 213.961 262.785 217.691L238.619 227.417C236.478 228.218 235.526 228.503 233.438 227.542L233.263 226.875C233.484 226.367 233.729 225.977 234.121 225.58C237.92 221.735 245.139 219.432 250.112 217.366C281.967 204.135 315.274 199.496 349.343 196.234C366.226 194.617 383.141 193.229 400.089 192.543Z"
     id="path930" />
  <path
     fill="#141314"
     transform="scale(0.666667 0.666667)"
     d="M371.67 576.188L372.181 576.123C373.091 576.215 373.531 577.002 374.062 577.632C375.037 581.473 371.228 587.161 369.622 590.546C367.761 594.47 365.916 598.404 364.208 602.397C359.351 613.755 355.567 626.824 353.633 639.033C354.858 637.039 355.649 634.448 356.555 632.272C358.518 627.556 360.454 622.83 362.386 618.1C365.738 609.889 369.489 601.948 373.111 593.865C374.928 589.808 377.354 581.085 381.75 578.991L382.436 579.375C383.118 583.161 379.652 588.904 378.261 592.438C373.486 604.568 368.592 616.53 363.191 628.406C355.612 644.882 348.808 661.104 343.829 678.576C342.353 683.756 342.065 689.241 340.555 694.312L339.985 694.278C339.388 693.005 339.236 691.933 339.193 690.537C338.88 680.25 340.031 670.542 341.659 660.435C345.403 637.182 352.993 614.099 362.724 592.678C364.454 588.871 366.272 585.127 368.305 581.471C369.312 579.66 370.253 577.711 371.67 576.188Z"
     id="path932" />
  <path
     fill="#141314"
     transform="scale(0.666667 0.666667)"
     d="M402.637 128.774C411.854 128.285 421.692 130.93 429.581 135.702C434.56 138.714 438.703 142.709 442.735 146.856C450.809 155.16 457.262 163.798 463.506 173.519C467.4 179.582 471.524 185.865 473.244 192.938L472.688 193.469C470.421 192.516 468.962 190.576 467.473 188.694C464.706 185.198 462.174 181.512 459.627 177.856C455.355 171.724 451.15 165.519 446.425 159.722C441.712 153.941 436.623 148.481 430.669 143.949C422.028 137.372 411.615 133.513 400.688 134.958C393.724 135.878 387.244 138.307 380.703 140.744C374.753 142.961 368.794 145.172 362.823 147.332C355.299 150.053 347.489 152.169 339.715 154.049C326.181 157.32 312.357 159.819 298.5 161.224C286.392 162.452 274.22 162.864 262.181 164.749L258.403 165.496C244.237 168.732 232.039 176.253 224.235 188.791C213.935 205.341 215.781 223.081 220.056 241.221C214.874 235.836 212.588 229.671 211.703 222.312C209.833 206.759 213.478 192.412 223.226 180.048C229.934 171.541 238.722 165.585 249.019 162.294C261.891 158.18 275.262 158.276 288.58 157.115C302.127 155.935 315.589 154.173 328.881 151.261C341.367 148.526 353.447 144.795 365.458 140.456C377.663 136.046 389.646 130.323 402.637 128.774Z"
     id="path934" />
  <path
     fill="#232021"
     transform="scale(0.666667 0.666667)"
     d="M535.788 517.277C549.342 516.545 562.732 520.928 573.984 528.347C588.91 538.187 599.853 554.948 607.237 570.869C610.743 578.425 613.702 585.986 615.358 594.188L614.812 594.683C611.655 592.489 609.032 585.251 607.343 581.806C597.263 561.247 583.691 536.986 560.887 528.689C549.633 524.594 535.757 527.588 525.232 532.502C519.565 534.958 514.265 539.008 509.642 543.062C494.106 556.687 482.294 575.217 473.934 593.987C470.208 602.352 467.892 611.245 463.588 619.337C464.056 613.876 463.435 608.405 464.145 602.93C466.94 581.366 478.446 560.608 492.406 544.22C503.821 530.82 517.522 518.726 535.788 517.277Z"
     id="path936" />
  <path
     fill="#232021"
     transform="scale(0.666667 0.666667)"
     d="M305.816 352.636L305.824 352.267C305.551 348.04 299.134 335.712 295.838 333.091C293.431 331.176 286.944 332.239 283.923 332.632C269.528 334.506 255.85 339.089 241.715 342.136C213.64 348.187 178.654 350.286 154.56 331.87C150.967 329.123 144.519 323.783 143.89 319.1L143.812 318.395C144.442 318.09 144.172 318.065 144.707 318.26C148.384 319.6 151.747 323.277 154.709 325.802C157.436 328.127 160.322 330.211 163.43 332.001C184.113 343.914 207.322 343.584 230.171 339.752C236.797 338.64 243.949 337.534 250.245 335.141C223.961 336.592 194.715 340.379 169.928 329.253C166.189 327.574 162.393 325.854 159.351 323.041C157.302 321.146 155.618 318.901 155.067 316.125C155.587 314.604 156.702 313.853 157.909 312.828C161.648 309.652 166.068 307.051 170.461 304.895C192.907 293.88 217.141 287.251 241.163 280.65C252.696 277.481 264.124 274.132 275.421 270.189C282.553 267.7 289.93 265.014 296.628 261.507C284.96 263.637 273.364 266.225 261.694 268.404C241.84 272.11 221.954 275.964 202.411 281.105C192.538 283.701 182.403 286.419 172.963 290.341C166.377 293.078 159.798 296.087 153.612 299.643C149.113 302.229 144.891 305.218 140.438 307.856C140.003 307.079 140.187 307.004 140.417 306.151C141.896 300.682 149.59 296.182 154.297 293.571C166.84 286.611 180.249 282.229 193.999 278.382C212.208 273.286 230.844 269.408 249.423 265.914C265.323 262.923 281.261 260.329 296.888 256.056C311.24 252.132 325.124 246.865 339.28 242.328C364.394 234.279 389.748 227.02 415.178 220.048C435.086 214.59 454.657 209.01 475.125 205.845C495.435 202.705 516.658 202.278 536.552 208.089C547.749 211.359 560.131 216.945 565.974 227.649C570.02 235.063 569.549 243.989 567.141 251.858C561.24 271.143 544.265 285.445 527.048 294.533C520.862 297.798 514.325 300.346 507.748 302.696C503.612 304.173 499.498 305.702 495.174 306.548C497.691 316.235 495.928 325.382 490.832 333.938C485.147 343.484 477.146 349.791 466.517 352.893C466.313 352.953 464.884 353.337 464.871 353.363C464.736 353.649 465.374 356.863 465.453 357.375C465.983 360.818 466.208 364.107 466.298 367.583C467.416 366.011 468.29 363.828 468.79 361.97C469.143 360.659 469.401 357.459 470.486 356.812C471.823 357.997 472.399 358.976 472.494 360.785C472.761 365.857 469.979 369.571 466.688 373.116L465.6 374.196C467.531 383.89 469.361 393.551 470.985 403.304C472.17 410.42 472.657 419.02 475.25 425.736C476.398 428.707 478.918 431.45 481.169 433.671C487.836 430.888 494.687 429.615 501.647 432.362C506.887 434.431 511.476 439.038 513.621 444.233C515.728 449.335 515.421 454.14 513.247 459.198C511.849 462.451 509.885 465.39 507.655 468.129C500.187 477.298 491.083 485.313 482.965 493.913C469.395 508.288 456.881 523.918 441.375 536.314C432.31 543.562 422.445 549.443 411.602 553.635C400.342 557.988 386.242 561.057 374.154 559.309C379.594 556.453 385.548 556.191 391.453 554.822C400.895 552.633 410.135 549.701 418.804 545.324C426.877 541.249 434.374 536.416 441.25 530.528C455.052 518.709 466.716 504.307 479.128 491.064C486.917 482.754 495.853 474.827 502.804 465.846C505.1 462.88 506.981 459.603 508.084 456C509.193 452.374 509.841 448.396 507.888 444.938C505.809 441.257 501.446 437.674 497.357 436.539C489.33 434.31 479.36 439.583 472.714 443.61C463.565 449.153 455.506 456.33 447.549 463.435C432.137 477.196 417.38 491.901 404.042 507.698C398.962 513.716 394.024 519.911 389.136 526.085C385.725 530.391 382.28 536.842 377.602 539.718C369.675 544.591 356.423 543.477 347.763 541.353C332.281 537.555 318.196 527.541 309.993 513.837C301.003 498.817 299.464 480.907 298.722 463.813C298.326 454.686 298.009 445.544 297.728 436.412L297.284 436.622C294.182 438.061 289.165 440.147 285.75 439.059C284.823 438.763 284.084 438.12 283.668 437.24C283.064 435.963 283.121 434.854 283.691 433.565C286.225 427.823 292.885 423.244 297.715 419.59C303.596 415.141 309.65 410.942 315.469 406.411C317.593 404.757 320.548 402.975 321.978 400.641C317.606 403.149 313.895 406.481 309.834 409.433C304.584 413.249 299.022 416.794 293.549 420.285C292.214 421.137 288.691 423.915 287.305 423.562C286.713 422.435 286.449 422.325 286.784 421.052C292.526 415.843 300.222 411.825 306.727 407.554C312.334 403.872 317.097 399.517 323.355 396.886C326.241 395.673 328.394 395.992 331.312 395.548C336.033 394.83 340.155 392.789 345.114 392.981C353.049 393.289 361.257 398.463 368.44 401.542C374.736 404.24 381.547 406.951 388.154 408.768C390.853 405.047 392.607 400.45 394.394 396.22C398.232 387.137 401.461 377.72 403.663 368.099C406.665 354.975 408.297 341.564 411.252 328.45L399.494 330.107C399.426 331.414 399.92 332.82 400.113 334.125C400.397 336.042 400.516 338.003 400.703 339.933C401.789 351.146 399.926 362.647 391.184 370.519C383.626 377.325 372.418 380.673 362.328 380.066C350.576 379.36 341.068 374.132 333.275 365.345C330.159 361.832 327.613 357.968 325.297 353.892C323.734 351.142 322.305 348.236 320.95 345.375C320.475 344.372 319.828 342.226 319.042 341.52L309.054 343.257C311.838 352.17 314.476 361.256 313.313 370.719C312.802 374.883 311.351 378.877 309.651 382.688C309.341 383.382 308.21 385.182 308.301 385.444C308.505 386.03 311.848 388.248 312.46 388.585C319.766 392.607 329.061 389.374 336.732 387.915C338.757 387.53 341.14 386.95 343.211 387.061C344.031 387.105 343.742 386.943 344.126 387.67C340.584 392.024 326.945 394.773 321.226 395.385C318.341 395.694 316.156 395.686 313.394 394.64L312.887 394.452C310.336 393.454 308.105 390.921 306.164 389.035C299.763 393.642 291.914 396.355 283.93 395.17C271.896 393.383 261.261 383.666 254.455 374.119C250.202 368.154 246.843 361.345 244.101 354.562C242.842 351.448 241.429 348.12 240.78 344.812C241.713 343.961 242.003 343.909 243.188 343.624C244.217 344.042 244.614 344.684 245.17 345.598C246.572 347.904 247.514 350.641 248.652 353.098C250.45 356.979 252.438 360.796 254.568 364.505C262.5 378.327 277.069 395.397 294.863 388.015C300.325 385.749 304.32 381.828 306.496 376.328C308.745 370.642 309.359 360.841 306.823 355.24C306.646 354.848 306.461 354.45 306.146 354.151L305.816 352.636Z"
     id="path938" />
  <path
     fill="white"
     transform="scale(0.666667 0.666667)"
     d="M329.363 398.812L329.968 398.7C332.688 401.093 336.259 402.456 339.375 404.263C344.194 407.057 348.735 410.314 353.614 413.026C359.683 416.4 366.039 418.624 372.57 420.856C367.659 422.567 362.039 423.177 357.241 420.714C356.119 420.138 354.856 418.954 353.74 418.54C353.07 418.291 350.229 418.76 349.346 418.812C341.645 419.263 333.966 419.623 326.315 420.669C325.843 421.406 325.219 422.608 324.446 423.045C323.545 423.555 321.967 423.746 320.956 423.979C318.284 424.595 315.605 425.177 312.934 425.8C309.686 426.558 306.526 427.502 303.353 428.529C303.26 430.523 304.128 432.978 304.459 434.973C305.09 438.773 305.512 442.59 305.95 446.416C306.945 455.123 307.504 463.803 308.891 472.48C311.833 490.89 318.049 508.079 329.724 522.775C333.036 526.957 337.404 530.54 341.416 534.023C336.893 531.9 332.981 529.479 329.082 526.332C323.524 521.846 318.14 516.409 314.439 510.272C309.948 502.822 307.369 493.921 305.808 485.423C302.425 467.005 303.307 448.063 301.41 429.472C295.908 431.373 291.202 434.643 285.873 436.907C286.899 435.296 288.69 433.744 290.046 432.37C300.1 422.189 313.459 416.108 323.578 406.105C325.715 403.993 327.895 401.989 329.176 399.228L329.363 398.812Z"
     id="path940" />
  <path
     fill="#232021"
     d="m 226.69764,261.66512 c 0.98436,-0.0992 1.48805,-0.19845 2.54403,-0.0576 8.04627,1.06567 22.33885,18.48152 27.37066,23.82177 -13.96274,2.8537 -30.14738,3.06802 -44.56267,4.42342 l -28.37549,3.38356 c 5.80395,-5.9991 12.79172,-11.29769 19.52125,-16.66573 6.68605,-5.33628 14.08292,-12.75032 23.50222,-14.90547 z"
     id="path942"
     style="stroke-width:2.25256" />
  <path
     fill="white"
     transform="scale(0.666667 0.666667)"
     d="M469.216 291.489C473.991 291.57 478.092 293.197 481.596 296.454C486.607 301.113 490.594 308.344 490.744 315.293C490.936 324.167 486.423 332.666 480.381 338.919C474.683 344.815 468.39 347.895 460.122 347.993C458.332 347.784 456.552 347.563 454.875 346.858C449.893 344.762 447.211 338.809 445.262 334.163C447.602 335.111 449.72 336.382 451.892 337.658C450.221 334.628 448.16 332.027 446.014 329.332C445.572 319.472 447.62 308.624 453.636 300.548C457.648 295.165 462.65 292.46 469.216 291.489Z"
     id="path944" />
  <path
     fill="white"
     transform="scale(0.666667 0.666667)"
     d="M380.036 252.562L380.457 252.451C382.298 253.249 384.863 257.559 386.219 259.228C388.385 261.896 390.666 264.464 393.013 266.972C402.183 276.77 412.918 284.796 422.282 294.361C416.122 294.323 409.913 293.436 403.757 293.086C395.533 292.618 387.288 292.572 379.066 292.002C367.195 291.178 355.287 288.558 343.578 291.943C333.87 294.749 326.049 301.924 321.236 310.691C319.479 313.89 317.874 317.237 316.365 320.559C315.735 321.946 314.67 324.068 314.524 325.581C314.386 327.019 315.487 329.745 315.916 331.214L317.859 336.607C314.648 336.999 311.1 337.886 308.17 339.269L307.835 339.432C304.846 333.618 301.603 327.264 295.689 323.905C290.215 320.796 283.824 322.198 278.148 323.846C285.521 315.296 296.214 310.774 305.732 305.074C311.965 301.341 317.624 296.794 323.773 292.979C327.9 290.419 332.501 288.567 336.7 286.072C342.753 282.477 348.488 278.365 354.242 274.318C363.484 267.817 372.747 261.275 380.036 252.562Z"
     id="path946" />
  <path
     fill="white"
     transform="scale(0.666667 0.666667)"
     d="M356.163 296.424L419.854 300.317C416.864 307.687 415.512 315.191 413.46 322.818C410.07 322.826 406.591 323.113 403.214 323.443C402.066 323.555 399.848 324.167 398.85 323.761C398.317 320.967 397.774 318.225 396.752 315.562C394.564 309.86 391.84 306.643 386.214 304.138C389.858 310.611 392.692 317.326 394.709 324.479L384.252 325.749C376.477 326.926 368.763 328.448 360.994 329.667C354.067 330.753 346.482 331.455 339.75 333.378C338.557 333.719 337.799 334.034 337.044 335.063L337.227 335.897C338.12 336.578 338.767 337.121 339.938 337.208C342.932 337.431 346.619 336.492 349.626 336.081C354.43 335.425 359.261 334.925 364.081 334.397L394.683 330.62L395.112 332.732C396.925 343.346 397.48 354.135 390.832 363.248C386.103 369.728 378.048 373.605 370.275 374.792C360.503 376.285 350.793 373.28 342.917 367.422C332.673 359.802 327.245 347.185 323.465 335.391C322.584 332.643 321.343 329.375 321.087 326.514C320.968 325.19 321.487 323.557 321.879 322.283C323.399 317.353 326.246 312.802 329.649 308.954C337.178 300.444 344.921 297.069 356.163 296.424Z"
     id="path948" />
  <path
     fill="#141314"
     d="m 728.10366,212.85654 0.404,-0.0593 c 0.35,0.198 0.63067,0.38 0.92133,0.66333 3.06667,2.986 5.93867,6.15934 8.96534,9.18134 2.184,2.18133 4.86867,4.27333 6.74934,6.712 0.57266,0.742 0.74733,1.08534 0.76666,2.00267 -0.66466,-0.10067 -1.41266,-0.48467 -1.99066,-0.81733 -4.87534,-2.80801 -14.25201,-12.28201 -15.81601,-17.68268 z"
     id="path407"
     style="stroke-width:0.666667" />
  <path
     fill="#141314"
     d="m 761.86634,209.33187 c -0.23133,0.254 -0.44266,0.48334 -0.72266,0.684 -2.61001,1.872 -19.04535,2.69267 -22.80668,2.53534 -1.668,-0.07 -3.35467,-0.46 -4.99267,-0.77134 0.84,-0.58133 1.704,-1.234 2.72,-1.45066 3.65533,-0.77934 7.99867,-0.55334 11.74334,-0.86134 4.44667,-0.366 9.41334,-1.52666 13.83867,-1.146 z"
     id="path409"
     style="stroke-width:0.666667" />
  <path
     fill="#141314"
     d="m 842.28972,113.85649 0.438,0.084 c -9.70934,3.96134 -21.02735,5.248 -31.30869,7.146 -12.95,2.39067 -25.87934,4.87867 -38.83268,7.25934 -9.28867,1.70734 -18.66668,3.55734 -27.81735,5.90467 -8.45334,2.16867 -16.76467,4.752 -25.12535,7.22801 l -0.25733,-0.0413 -0.154,-0.218 c 3.00867,-2.11533 6.82667,-3.65333 10.22401,-5.00867 19.16334,-7.646 40.17002,-10.36734 60.36069,-14.02267 11.80801,-2.138 23.53468,-4.52934 35.41335,-6.28667 5.65667,-0.83667 11.44201,-1.118 17.05935,-2.04467 z"
     id="path411"
     style="stroke-width:0.666667" />
  <path
     fill="#141314"
     d="m 906.09575,306.33392 c 4.24267,-0.182 8.848,0.15133 12.864,1.644 1.022,0.38 2.76067,0.98134 3.23667,2.00334 -1.87533,1.61866 -8.91267,-0.124 -11.42467,-0.22867 -2.324,-0.0967 -4.67467,-0.028 -6.98534,0.23133 -4.59,0.51467 -9.05067,2.12667 -13.08534,4.34067 -12.30934,6.756 -20.61534,19.09468 -29.42334,29.65668 -3.31867,3.97934 -6.68467,8.21867 -11.10668,11.02734 -3.808,2.41934 -8.21667,3.626 -12.53534,4.78734 -3.936,0.84266 -9.03333,2.11533 -13.07267,1.57 -1.18733,-0.16 -2.36467,-0.408 -3.094,-1.38467 l 0.17467,-0.58733 c 1.26066,-0.488 2.95066,-0.42 4.308,-0.548 4.228,-0.39734 8.39267,-1.358 12.464,-2.54134 2.97334,-0.86466 6.03467,-1.81466 8.72867,-3.37333 3.76334,-2.178 6.52801,-5.30067 9.30601,-8.57867 3.26133,-3.84734 6.31267,-7.86934 9.54134,-11.74534 7.044,-8.45534 15.54801,-18.65135 25.86068,-23.02801 4.5,-1.91001 9.402,-2.80534 14.24334,-3.24534 z"
     id="path413"
     style="stroke-width:0.666667" />
  <path
     fill="#141314"
     d="m 824.49504,101.59315 c 8.56134,-0.29466 18.61268,-0.89267 26.76668,1.96534 -3.87534,0.62266 -7.978,0.514 -11.90601,0.576 -5.502,0.086 -10.982,0.18 -16.47867,0.46666 -11.67667,0.60934 -23.27335,1.60267 -34.90068,2.82534 -11.06601,1.16333 -22.25468,2.40533 -33.14669,4.73 -7.388,1.57733 -14.74401,3.71534 -21.87068,6.202 l -16.11067,6.48401 c -1.42733,0.534 -2.062,0.724 -3.454,0.0833 l -0.11667,-0.44467 c 0.14733,-0.33866 0.31067,-0.59866 0.572,-0.86333 2.53267,-2.56334 7.34534,-4.09867 10.66067,-5.476 21.23668,-8.82067 43.44136,-11.91334 66.15404,-14.08801 11.25534,-1.078 22.53201,-2.00333 33.83068,-2.46067 z"
     id="path415"
     style="stroke-width:0.666667" />
  <path
     fill="#141314"
     d="m 805.54903,357.35661 0.34067,-0.0433 c 0.60666,0.0613 0.9,0.586 1.254,1.006 0.65,2.56067 -1.88934,6.35267 -2.96,8.60934 -1.24067,2.616 -2.47067,5.23867 -3.60934,7.90067 -3.238,7.572 -5.76067,16.28467 -7.05,24.42401 0.81667,-1.32933 1.344,-3.05667 1.948,-4.50733 1.30867,-3.14401 2.59933,-6.29467 3.88733,-9.44801 2.23467,-5.474 4.73534,-10.768 7.15001,-16.15667 1.21133,-2.70467 2.82867,-8.52001 5.75933,-9.91601 l 0.45734,0.256 c 0.45466,2.524 -1.856,6.35267 -2.78334,8.70867 -3.18333,8.08667 -6.446,16.06134 -10.04667,23.97868 -5.05267,10.98401 -9.58867,21.79868 -12.90801,33.44668 -0.984,3.45334 -1.176,7.11001 -2.18266,10.49068 l -0.38,-0.0227 c -0.398,-0.84867 -0.49934,-1.56333 -0.528,-2.494 -0.20867,-6.85801 0.55866,-13.33001 1.644,-20.06801 2.496,-15.50201 7.556,-30.89068 14.04334,-45.17136 1.15333,-2.538 2.36533,-5.034 3.72067,-7.47134 0.67133,-1.20733 1.29866,-2.50666 2.24333,-3.522 z"
     id="path417"
     style="stroke-width:0.666667" />
  <path
     fill="#141314"
     d="m 826.19371,59.080469 c 6.14467,-0.326 12.70334,1.437334 17.96267,4.618669 3.31934,2.008001 6.08134,4.671336 8.76934,7.436004 5.38267,5.536002 9.68467,11.294672 13.84734,17.775343 2.596,4.042 5.34534,8.23067 6.492,12.946005 l -0.37066,0.354 c -1.51134,-0.63534 -2.484,-1.92867 -3.47667,-3.183335 -1.84467,-2.33067 -3.53267,-4.788 -5.23067,-7.22534 -2.848,-4.088 -5.65134,-8.224667 -8.80134,-12.089336 -3.142,-3.854002 -6.53467,-7.494003 -10.504,-10.515338 -5.76067,-4.384669 -12.70268,-6.957337 -19.98735,-5.994003 -4.64267,0.613333 -8.96267,2.232668 -13.32334,3.857335 -3.96666,1.478001 -7.93933,2.952001 -11.92,4.392002 -5.016,1.814001 -10.22267,3.224668 -15.40534,4.478002 -9.02267,2.180668 -18.23868,3.846669 -27.47668,4.783336 -8.07201,0.818667 -16.18668,1.093334 -24.21268,2.350001 l -2.51867,0.498001 c -9.44401,2.15733 -17.57601,7.17134 -22.77868,15.53001 -6.86667,11.033335 -5.636,22.860005 -2.786,34.953345 -3.45467,-3.59 -4.97867,-7.70001 -5.56867,-12.60601 -1.24667,-10.36867 1.18333,-19.93334 7.682,-28.176005 4.47201,-5.67134 10.33068,-9.642007 17.19535,-11.836008 8.58133,-2.742668 17.49534,-2.678668 26.37401,-3.452669 9.03134,-0.786667 18.00601,-1.961334 26.86735,-3.902668 8.324,-1.823334 16.37734,-4.310669 24.38468,-7.203337 8.13667,-2.940002 16.12534,-6.755337 24.78601,-7.788004 z"
     id="path419"
     style="stroke-width:0.666667" />
  <path
     fill="#232021"
     d="m 914.96109,318.08259 c 9.036,-0.488 17.96267,2.434 25.46401,7.38001 9.95067,6.56 17.24601,17.73401 22.16868,28.34801 2.33733,5.03734 4.31,10.07801 5.414,15.54601 l -0.364,0.33 c -2.10467,-1.46267 -3.85334,-6.288 -4.97934,-8.58467 -6.72,-13.70601 -15.76801,-29.88002 -30.97068,-35.41135 -7.50267,-2.73 -16.75334,-0.734 -23.77001,2.542 -3.778,1.63733 -7.31134,4.33733 -10.39334,7.04 -10.35734,9.08334 -18.23201,21.43668 -23.80535,33.95002 -2.484,5.57667 -4.028,11.50534 -6.89733,16.90001 0.312,-3.64067 -0.102,-7.28801 0.37133,-10.93801 1.86334,-14.37601 9.53401,-28.21468 18.84068,-39.14002 7.61,-8.93334 16.74401,-16.99601 28.92135,-17.96201 z"
     id="path421"
     style="stroke-width:0.666667" />
  <path
     fill="#232021"
     d="m 761.64634,208.32187 0.005,-0.246 c -0.182,-2.818 -4.46001,-11.03667 -6.65734,-12.784 -1.60467,-1.27667 -5.92934,-0.568 -7.94334,-0.306 -9.59667,1.24933 -18.71534,4.30466 -28.13868,6.336 -18.71668,4.034 -42.04069,5.43333 -58.10336,-6.844 -2.39534,-1.83134 -6.69401,-5.39134 -7.11334,-8.51334 l -0.052,-0.47 c 0.42,-0.20334 0.24,-0.22 0.59667,-0.09 2.45133,0.89333 4.69333,3.34467 6.668,5.028 1.818,1.55 3.742,2.93933 5.814,4.13267 13.78868,7.942 29.26135,7.722 44.49403,5.16733 4.41733,-0.74133 9.18533,-1.47866 13.38267,-3.074 -17.52268,0.96734 -37.02002,3.492 -53.54469,-3.92533 -2.49267,-1.11934 -5.02334,-2.266 -7.05134,-4.14134 -1.366,-1.26333 -2.48867,-2.76 -2.856,-4.61067 0.34667,-1.014 1.09,-1.51466 1.89467,-2.198 2.49266,-2.11733 5.43933,-3.85133 8.368,-5.28867 14.96401,-7.34333 31.12002,-11.76267 47.13469,-16.16334 7.68867,-2.11267 15.30734,-4.34533 22.83868,-6.974 4.75467,-1.65934 9.67267,-3.45 14.13801,-5.78801 -7.77867,1.42001 -15.50935,3.14534 -23.28935,4.59801 -13.23601,2.47067 -26.49335,5.04 -39.52202,8.46733 -6.582,1.73067 -13.33867,3.54267 -19.63201,6.15734 -4.39067,1.82467 -8.77667,3.83067 -12.90067,6.20134 -2.99934,1.724 -5.814,3.71667 -8.78267,5.47533 -0.29,-0.518 -0.16734,-0.568 -0.014,-1.13666 0.986,-3.64601 6.11533,-6.64601 9.25333,-8.38667 8.36201,-4.64001 17.30135,-7.56134 26.46802,-10.12601 12.13934,-3.39733 24.56334,-5.98267 36.94935,-8.312 10.60001,-1.994 21.22534,-3.72334 31.64335,-6.57201 9.568,-2.616 18.82401,-6.12733 28.26135,-9.152 16.74267,-5.366 33.64535,-10.20534 50.59869,-14.85334 13.27201,-3.63867 26.31935,-7.35867 39.96469,-9.46867 13.54,-2.09334 27.68868,-2.378 40.95135,1.496 7.46467,2.18 15.71934,5.904 19.61468,13.04 2.69733,4.94267 2.38333,10.89334 0.778,16.13935 -3.93401,12.85667 -15.25068,22.39134 -26.72868,28.45001 -4.12401,2.17667 -8.48201,3.87533 -12.86668,5.442 -2.75733,0.98467 -5.5,2.004 -8.38267,2.568 1.678,6.45801 0.50267,12.55601 -2.89467,18.26001 -3.79,6.36401 -9.124,10.56867 -16.21,12.63668 -0.136,0.04 -1.08867,0.296 -1.09734,0.31333 -0.09,0.19067 0.33534,2.33333 0.388,2.67467 0.35334,2.29533 0.50334,4.488 0.56334,6.80533 0.74533,-1.048 1.328,-2.50333 1.66133,-3.742 0.23533,-0.874 0.40733,-3.00733 1.13067,-3.43867 0.89133,0.79 1.27533,1.44267 1.33866,2.64867 0.178,3.38134 -1.67666,5.85734 -3.87066,8.22067 l -0.72534,0.72 c 1.28734,6.46267 2.50734,12.90334 3.59,19.40535 0.79,4.744 1.11467,10.47733 2.84334,14.95467 0.76533,1.98067 2.44533,3.80933 3.946,5.29 4.44467,-1.85533 9.01201,-2.704 13.65201,-0.87266 3.49333,1.37933 6.55267,4.45066 7.98267,7.914 1.40467,3.40133 1.2,6.60467 -0.24934,9.97667 -0.932,2.16867 -2.24133,4.128 -3.728,5.954 -4.97867,6.11267 -11.048,11.45601 -16.46001,17.18935 -9.04667,9.58333 -17.38934,20.00334 -27.72668,28.26734 -6.04333,4.83201 -12.62,8.75267 -19.84867,11.54734 -7.50667,2.902 -16.90668,4.948 -24.96535,3.78267 3.62667,-1.904 7.59601,-2.07867 11.53267,-2.99133 6.29467,-1.45934 12.45468,-3.41401 18.23401,-6.33201 5.38201,-2.71667 10.38001,-5.93867 14.96401,-9.864 9.20134,-7.87934 16.97734,-17.48068 25.25201,-26.30935 5.19267,-5.54 11.15001,-10.82467 15.78401,-16.81201 1.53067,-1.97733 2.78467,-4.162 3.52,-6.564 0.73934,-2.41733 1.17134,-5.06934 -0.13066,-7.37467 -1.386,-2.454 -4.29467,-4.84267 -7.02067,-5.59934 -5.35134,-1.486 -11.99801,2.02934 -16.42868,4.71401 -6.09934,3.69533 -11.472,8.48 -16.77667,13.21667 -10.27468,9.174 -20.11268,18.97734 -29.00469,29.50868 -3.38666,4.012 -6.67867,8.142 -9.93733,12.25801 -2.274,2.87066 -4.57067,7.17133 -7.68934,9.08867 -5.28467,3.24867 -14.11934,2.506 -19.89268,1.09 -10.32134,-2.532 -19.71134,-9.20801 -25.18001,-18.34401 -5.99334,-10.01334 -7.01934,-21.95335 -7.514,-33.34935 -0.264,-6.08467 -0.47534,-12.17934 -0.66267,-18.26734 l -0.296,0.14 c -2.068,0.95933 -5.41267,2.35 -7.68934,1.62466 -0.618,-0.19733 -1.11067,-0.626 -1.388,-1.21266 -0.40267,-0.85134 -0.36467,-1.59067 0.0153,-2.45 1.68934,-3.82801 6.12934,-6.88067 9.34934,-9.31668 3.92067,-2.966 7.95667,-5.76533 11.83601,-8.786 1.416,-1.10267 3.386,-2.29067 4.33933,-3.84667 -2.91466,1.672 -5.38867,3.89334 -8.096,5.86134 -3.5,2.544 -7.208,4.90733 -10.85667,7.23467 -0.89,0.568 -3.23867,2.42 -4.16267,2.18467 -0.39467,-0.75134 -0.57067,-0.82467 -0.34733,-1.67334 3.828,-3.47267 8.95867,-6.15133 13.29534,-8.99867 3.738,-2.45467 6.91333,-5.358 11.08533,-7.112 1.92401,-0.80867 3.35934,-0.596 5.30467,-0.892 3.14734,-0.47867 5.89534,-1.83934 9.20134,-1.71134 5.29,0.20534 10.76201,3.65467 15.55068,5.70734 4.19733,1.79867 8.738,3.606 13.14267,4.81733 1.79933,-2.48066 2.96867,-5.54533 4.16,-8.36533 2.55867,-6.05534 4.71134,-12.33334 6.17934,-18.74735 2.00133,-8.74933 3.08933,-17.69001 5.05933,-26.43268 l -7.83867,1.10467 c -0.0453,0.87133 0.284,1.80867 0.41267,2.67867 0.18933,1.278 0.26867,2.58533 0.39333,3.872 0.724,7.47534 -0.518,15.14268 -6.346,20.39068 -5.03867,4.53733 -12.51067,6.76933 -19.23734,6.36467 -7.83467,-0.47067 -14.17334,-3.956 -19.36868,-9.81401 -2.07733,-2.342 -3.77467,-4.918 -5.31867,-7.63533 -1.042,-1.83334 -1.99467,-3.77067 -2.898,-5.67801 -0.31667,-0.66866 -0.748,-2.09933 -1.272,-2.57 l -6.65867,1.158 c 1.856,5.94201 3.61467,11.99934 2.83933,18.30801 -0.34066,2.776 -1.308,5.43867 -2.44133,7.97934 -0.20667,0.46267 -0.96067,1.66267 -0.9,1.83733 0.136,0.39067 2.36467,1.86934 2.77267,2.094 4.87067,2.68134 11.06734,0.526 16.18134,-0.44666 1.35,-0.25667 2.93867,-0.64334 4.31933,-0.56934 0.54667,0.0293 0.354,-0.0787 0.61,0.406 -2.36133,2.90267 -11.454,4.73534 -15.26667,5.14334 -1.92333,0.206 -3.38,0.20067 -5.22134,-0.49667 l -0.338,-0.12533 c -1.70066,-0.66533 -3.188,-2.354 -4.482,-3.61134 -4.26733,3.07134 -9.5,4.88001 -14.82267,4.09001 -8.02267,-1.19134 -15.11268,-7.66934 -19.65001,-14.03401 -2.83534,-3.97667 -5.07467,-8.51601 -6.90267,-13.03801 -0.83934,-2.076 -1.78134,-4.29467 -2.214,-6.5 0.622,-0.56733 0.81533,-0.602 1.60533,-0.792 0.686,0.27867 0.95067,0.70667 1.32134,1.316 0.93466,1.53733 1.56266,3.362 2.32133,5 1.19867,2.58734 2.524,5.132 3.944,7.60467 5.288,9.21467 15.00068,20.59468 26.86335,15.67334 3.64133,-1.51066 6.30467,-4.12466 7.75534,-7.79133 1.49933,-3.79067 1.90866,-10.32468 0.218,-14.05868 -0.118,-0.26133 -0.24134,-0.52666 -0.45134,-0.726 z"
     id="path423"
     style="stroke-width:0.666667" />
  <path
     fill="#ffffff"
     d="m 777.34435,239.10589 0.40333,-0.0747 c 1.81334,1.59533 4.19401,2.504 6.27134,3.70867 3.21267,1.86267 6.24,4.034 9.49267,5.842 4.046,2.24934 8.28334,3.732 12.63734,5.22 -3.274,1.14067 -7.02067,1.54734 -10.21934,-0.0947 -0.748,-0.384 -1.59,-1.17334 -2.334,-1.44934 -0.44667,-0.166 -2.34067,0.14667 -2.92933,0.18134 -5.13401,0.30066 -10.25334,0.54066 -15.35401,1.238 -0.31467,0.49133 -0.73067,1.29267 -1.246,1.584 -0.60067,0.34 -1.65267,0.46733 -2.32667,0.62267 -1.78133,0.41066 -3.56733,0.79866 -5.348,1.214 -2.16534,0.50533 -4.272,1.13466 -6.38734,1.81933 -0.062,1.32933 0.51667,2.966 0.73733,4.296 0.42067,2.53334 0.70201,5.07801 0.99401,7.62867 0.66333,5.80467 1.036,11.59134 1.96066,17.37601 1.96134,12.27334 6.10534,23.73268 13.88868,33.53002 2.208,2.788 5.12,5.17667 7.79467,7.49867 -3.01534,-1.41533 -5.62334,-3.02934 -8.22267,-5.12734 -3.70534,-2.99066 -7.29467,-6.61533 -9.76201,-10.70667 -2.994,-4.96667 -4.71333,-10.90067 -5.754,-16.56601 -2.25534,-12.27867 -1.66734,-24.90668 -2.932,-37.30068 -3.668,1.26733 -6.80534,3.44733 -10.35801,4.95667 0.684,-1.074 1.878,-2.10867 2.782,-3.02467 6.70267,-6.78734 15.60868,-10.84134 22.35468,-17.51001 1.42467,-1.408 2.878,-2.744 3.732,-4.58467 z"
     id="path425"
     style="stroke-width:0.666667" />
  <path
     fill="#232021"
     d="m 784.46655,234.89621 c 0.98436,-0.0992 1.48805,-0.19845 2.54403,-0.0576 8.04627,1.06567 22.33885,18.48152 27.37066,23.82177 -13.96274,2.8537 -30.14738,3.06802 -44.56267,4.42342 l -28.37549,3.38356 c 5.80395,-5.9991 12.79172,-11.29769 19.52125,-16.66573 6.68605,-5.33628 14.08292,-12.75032 23.50222,-14.90547 z"
     id="path427"
     style="stroke-width:2.25256" />
  <path
     fill="#ffffff"
     d="m 870.57973,167.55718 c 3.18333,0.054 5.91734,1.13867 8.25334,3.31001 3.34067,3.106 5.99867,7.92667 6.09867,12.55934 0.128,5.916 -2.88067,11.582 -6.90867,15.75067 -3.79867,3.93067 -7.99401,5.984 -13.50601,6.04934 -1.19333,-0.13934 -2.38,-0.28667 -3.498,-0.75667 -3.32134,-1.39733 -5.10934,-5.366 -6.40867,-8.46334 1.56,0.632 2.972,1.47934 4.42,2.33 -1.114,-2.02 -2.488,-3.754 -3.91867,-5.55067 -0.29466,-6.57333 1.07067,-13.80534 5.08134,-19.18934 2.67467,-3.58867 6.00933,-5.392 10.38667,-6.03934 z"
     id="path429"
     style="stroke-width:0.666667" />
  <path
     fill="#ffffff"
     d="m 811.12637,141.60584 0.28066,-0.074 c 1.22734,0.532 2.93734,3.40533 3.84134,4.518 1.444,1.77867 2.96467,3.49067 4.52933,5.16267 6.11334,6.532 13.27001,11.88267 19.51268,18.25934 -4.10667,-0.0253 -8.246,-0.61666 -12.35001,-0.85 -5.48266,-0.312 -10.97933,-0.34266 -16.46067,-0.72266 -7.914,-0.54934 -15.85267,-2.29601 -23.65868,-0.0393 -6.472,1.87067 -11.686,6.65401 -14.89467,12.49867 -1.17134,2.13267 -2.24134,4.36401 -3.24734,6.57867 -0.42,0.92467 -1.13,2.33934 -1.22733,3.34801 -0.092,0.95866 0.642,2.776 0.928,3.75533 l 1.29533,3.59534 c -2.14066,0.26133 -4.506,0.85266 -6.45933,1.77466 l -0.22334,0.10867 c -1.99266,-3.876 -4.15467,-8.112 -8.09733,-10.35134 -3.64934,-2.07267 -7.91001,-1.138 -11.69401,-0.0393 4.91534,-5.7 12.04401,-8.71467 18.38934,-12.51467 4.15534,-2.48867 7.92801,-5.52001 12.02734,-8.06334 2.75134,-1.70667 5.81867,-2.94134 8.61801,-4.60467 4.03533,-2.39667 7.85867,-5.138 11.69467,-7.836 6.16133,-4.33401 12.33667,-8.69534 17.19601,-14.50401 z"
     id="path431"
     style="stroke-width:0.666667" />
  <path
     fill="#ffffff"
     d="m 795.21103,170.84719 42.46068,2.59533 c -1.99333,4.91334 -2.89466,9.91601 -4.26267,15.00068 -2.26,0.005 -4.57933,0.19666 -6.83067,0.41666 -0.76533,0.0747 -2.244,0.48267 -2.90933,0.212 -0.35533,-1.86267 -0.71733,-3.69067 -1.39867,-5.466 -1.45867,-3.80134 -3.27467,-5.946 -7.02533,-7.616 2.42933,4.31533 4.31866,8.792 5.66333,13.56067 l -6.97134,0.84667 c -5.18333,0.78466 -10.326,1.79933 -15.50534,2.612 -4.618,0.724 -9.67467,1.192 -14.16267,2.474 -0.79533,0.22733 -1.30067,0.43733 -1.804,1.12333 l 0.122,0.556 c 0.59533,0.454 1.02667,0.816 1.80733,0.874 1.996,0.14867 4.45401,-0.47733 6.45867,-0.75133 3.20267,-0.43733 6.42334,-0.77067 9.63667,-1.12267 l 20.40135,-2.518 0.286,1.408 c 1.20867,7.07601 1.57867,14.26868 -2.85334,20.34401 -3.15266,4.32 -8.52267,6.90467 -13.70467,7.69601 -6.51467,0.99533 -12.98801,-1.008 -18.23868,-4.91334 -6.82933,-5.08 -10.448,-13.49134 -12.968,-21.35401 -0.58734,-1.832 -1.41467,-4.01067 -1.58534,-5.918 -0.0793,-0.88267 0.26667,-1.97134 0.528,-2.82067 1.01334,-3.28667 2.91134,-6.32067 5.18001,-8.88601 5.01933,-5.67333 10.18134,-7.92333 17.67601,-8.35333 z"
     id="path433"
     style="stroke-width:0.666667" />
</svg>
