<?xml version="1.0" encoding="UTF-8" standalone="no"?>
<svg
   width="512"
   height="512"
   version="1.1"
   id="svg950"
   sodipodi:docname="man.svg"
   inkscape:version="1.2.2 (1:1.2.2+202212051552+b0a8486541)"
   xmlns:inkscape="http://www.inkscape.org/namespaces/inkscape"
   xmlns:sodipodi="http://sodipodi.sourceforge.net/DTD/sodipodi-0.dtd"
   xmlns="http://www.w3.org/2000/svg"
   xmlns:svg="http://www.w3.org/2000/svg">
  <defs
     id="defs954" />
  <sodipodi:namedview
     id="namedview952"
     pagecolor="#ffffff"
     bordercolor="#000000"
     borderopacity="0.25"
     inkscape:showpageshadow="2"
     inkscape:pageopacity="0.0"
     inkscape:pagecheckerboard="0"
     inkscape:deskcolor="#d1d1d1"
     showgrid="false"
     inkscape:zoom="0.97851562"
     inkscape:cx="13.796407"
     inkscape:cy="291.76846"
     inkscape:window-width="1292"
     inkscape:window-height="704"
     inkscape:window-x="0"
     inkscape:window-y="0"
     inkscape:window-maximized="1"
     inkscape:current-layer="svg950" />
  <path
     fill="#ffffff"
     d="m 46.371257,55.265223 c 0.843526,-0.202688 1.792148,-0.107186 2.653238,-0.106757 1.533458,7.65e-4 3.06693,2.99e-4 4.600368,1.03e-4 5.929115,-7.53e-4 11.85818,-5.22e-4 17.7873,-5.15e-4 23.661403,2.5e-5 47.322717,1.31e-4 70.984277,-2.57e-4 94.83652,-0.0016 189.6735,0.0015 284.51001,0.0055 V 472.29167 c -0.84332,0.20318 -1.79218,0.10757 -2.65334,0.10702 -1.53354,-5.3e-4 -3.06657,-5.3e-4 -4.60011,0 -5.92901,5.5e-4 -11.85854,5.5e-4 -17.78756,5.5e-4 -23.66154,0 -47.32261,0 -70.98416,0 -94.83651,0.002 -189.67352,-8.2e-4 -284.510023,-0.005 z"
     id="path920"
     style="stroke-width:0.518829" />
  <path
     fill="#141314"
     d="M255.502 359.438L256.108 359.349C256.633 359.646 257.054 359.919 257.49 360.344C262.09 364.823 266.398 369.583 270.938 374.116C274.214 377.388 278.241 380.526 281.062 384.184C281.921 385.297 282.183 385.812 282.212 387.188C281.215 387.037 280.093 386.461 279.226 385.962C271.913 381.75 257.848 367.539 255.502 359.438Z"
     id="path922"
     transform="scale(0.666667 0.666667)"
     style="fill:#003380" />
  <path
     fill="#141314"
     d="M306.146 354.151C305.799 354.532 305.482 354.876 305.062 355.177C301.147 357.985 276.494 359.216 270.852 358.98C268.35 358.875 265.82 358.29 263.363 357.823C264.623 356.951 265.919 355.972 267.443 355.647C272.926 354.478 279.441 354.817 285.058 354.355C291.728 353.806 299.178 352.065 305.816 352.636L306.146 354.151Z"
     id="path924"
     transform="scale(0.666667 0.666667)"
     style="fill:#003380" />
  <path
     fill="#141314"
     d="M426.781 210.938L427.438 211.064C412.874 217.006 395.897 218.936 380.475 221.783C361.05 225.369 341.656 229.101 322.226 232.672C308.293 235.233 294.226 238.008 280.5 241.529C267.82 244.782 255.353 248.657 242.812 252.371L242.426 252.309L242.195 251.982C246.708 248.809 252.435 246.502 257.531 244.469C286.276 233 317.786 228.918 348.072 223.435C365.784 220.228 383.374 216.641 401.192 214.005C409.677 212.75 418.355 212.328 426.781 210.938Z"
     id="path926"
     transform="scale(0.666667 0.666667)"
     style="fill:#002255" />
  <path
     fill="#141314"
     d="M522.49 499.654C528.854 499.381 535.762 499.881 541.786 502.12C543.319 502.69 545.927 503.592 546.641 505.125C543.828 507.553 533.272 504.939 529.504 504.782C526.018 504.637 522.492 504.74 519.026 505.129C512.141 505.901 505.45 508.319 499.398 511.64C480.934 521.774 468.475 540.282 455.263 556.125C450.285 562.094 445.236 568.453 438.603 572.666C432.891 576.295 426.278 578.105 419.8 579.847C413.896 581.111 406.25 583.02 400.191 582.202C398.41 581.962 396.644 581.59 395.55 580.125L395.812 579.244C397.703 578.512 400.238 578.614 402.274 578.422C408.616 577.826 414.863 576.385 420.97 574.61C425.43 573.313 430.022 571.888 434.063 569.55C439.708 566.283 443.855 561.599 448.022 556.682C452.914 550.911 457.491 544.878 462.334 539.064C472.9 526.381 485.656 511.087 501.125 504.522C507.875 501.657 515.228 500.314 522.49 499.654Z"
     id="path928"
     transform="scale(0.666667 0.666667)"
     style="fill:#002255" />
  <path
     fill="#141314"
     d="M400.089 192.543C412.931 192.101 428.008 191.204 440.239 195.491C434.426 196.425 428.272 196.262 422.38 196.355C414.127 196.484 405.907 196.625 397.662 197.055C380.147 197.969 362.752 199.459 345.311 201.293C328.712 203.038 311.929 204.901 295.591 208.388C284.509 210.754 273.475 213.961 262.785 217.691L238.619 227.417C236.478 228.218 235.526 228.503 233.438 227.542L233.263 226.875C233.484 226.367 233.729 225.977 234.121 225.58C237.92 221.735 245.139 219.432 250.112 217.366C281.967 204.135 315.274 199.496 349.343 196.234C366.226 194.617 383.141 193.229 400.089 192.543Z"
     id="path930"
     transform="scale(0.666667 0.666667)"
     style="fill:#002255" />
  <path
     fill="#141314"
     d="M371.67 576.188L372.181 576.123C373.091 576.215 373.531 577.002 374.062 577.632C375.037 581.473 371.228 587.161 369.622 590.546C367.761 594.47 365.916 598.404 364.208 602.397C359.351 613.755 355.567 626.824 353.633 639.033C354.858 637.039 355.649 634.448 356.555 632.272C358.518 627.556 360.454 622.83 362.386 618.1C365.738 609.889 369.489 601.948 373.111 593.865C374.928 589.808 377.354 581.085 381.75 578.991L382.436 579.375C383.118 583.161 379.652 588.904 378.261 592.438C373.486 604.568 368.592 616.53 363.191 628.406C355.612 644.882 348.808 661.104 343.829 678.576C342.353 683.756 342.065 689.241 340.555 694.312L339.985 694.278C339.388 693.005 339.236 691.933 339.193 690.537C338.88 680.25 340.031 670.542 341.659 660.435C345.403 637.182 352.993 614.099 362.724 592.678C364.454 588.871 366.272 585.127 368.305 581.471C369.312 579.66 370.253 577.711 371.67 576.188Z"
     id="path932"
     transform="scale(0.666667 0.666667)"
     style="fill:#002255" />
  <path
     fill="#141314"
     d="M402.637 128.774C411.854 128.285 421.692 130.93 429.581 135.702C434.56 138.714 438.703 142.709 442.735 146.856C450.809 155.16 457.262 163.798 463.506 173.519C467.4 179.582 471.524 185.865 473.244 192.938L472.688 193.469C470.421 192.516 468.962 190.576 467.473 188.694C464.706 185.198 462.174 181.512 459.627 177.856C455.355 171.724 451.15 165.519 446.425 159.722C441.712 153.941 436.623 148.481 430.669 143.949C422.028 137.372 411.615 133.513 400.688 134.958C393.724 135.878 387.244 138.307 380.703 140.744C374.753 142.961 368.794 145.172 362.823 147.332C355.299 150.053 347.489 152.169 339.715 154.049C326.181 157.32 312.357 159.819 298.5 161.224C286.392 162.452 274.22 162.864 262.181 164.749L258.403 165.496C244.237 168.732 232.039 176.253 224.235 188.791C213.935 205.341 215.781 223.081 220.056 241.221C214.874 235.836 212.588 229.671 211.703 222.312C209.833 206.759 213.478 192.412 223.226 180.048C229.934 171.541 238.722 165.585 249.019 162.294C261.891 158.18 275.262 158.276 288.58 157.115C302.127 155.935 315.589 154.173 328.881 151.261C341.367 148.526 353.447 144.795 365.458 140.456C377.663 136.046 389.646 130.323 402.637 128.774Z"
     id="path934"
     transform="scale(0.666667 0.666667)"
     style="fill:#002255" />
  <path
     fill="#232021"
     d="M535.788 517.277C549.342 516.545 562.732 520.928 573.984 528.347C588.91 538.187 599.853 554.948 607.237 570.869C610.743 578.425 613.702 585.986 615.358 594.188L614.812 594.683C611.655 592.489 609.032 585.251 607.343 581.806C597.263 561.247 583.691 536.986 560.887 528.689C549.633 524.594 535.757 527.588 525.232 532.502C519.565 534.958 514.265 539.008 509.642 543.062C494.106 556.687 482.294 575.217 473.934 593.987C470.208 602.352 467.892 611.245 463.588 619.337C464.056 613.876 463.435 608.405 464.145 602.93C466.94 581.366 478.446 560.608 492.406 544.22C503.821 530.82 517.522 518.726 535.788 517.277Z"
     id="path936"
     transform="scale(0.666667 0.666667)"
     style="fill:#002255" />
  <path
     fill="#232021"
     d="m 200.43632,234.37621 0.005,-0.246 c -0.182,-2.818 -4.46,-11.03667 -6.65734,-12.784 -1.60466,-1.27667 -5.92933,-0.568 -7.94333,-0.306 -9.59667,1.24933 -18.71535,4.30467 -28.13868,6.336 -18.71668,4.034 -42.04069,5.43334 -58.103366,-6.844 -2.395335,-1.83134 -6.694004,-5.39134 -7.113337,-8.51334 l -0.052,-0.47 c 0.42,-0.20333 0.24,-0.22 0.596667,-0.09 2.451334,0.89333 4.693335,3.34467 6.668003,5.028 1.818003,1.55 3.742003,2.93934 5.814003,4.13267 13.78867,7.942 29.26135,7.722 44.49402,5.16734 4.41734,-0.74134 9.18534,-1.47867 13.38268,-3.07401 -17.52268,0.96734 -37.02002,3.49201 -53.5447,-3.92533 -2.49267,-1.11934 -5.02333,-2.266 -7.05133,-4.14134 -1.36601,-1.26333 -2.48867,-2.76 -2.856006,-4.61067 0.346666,-1.014 1.089996,-1.51466 1.894666,-2.198 2.49267,-2.11733 5.43934,-3.85133 8.36801,-5.28867 14.964,-7.34333 31.12001,-11.76267 47.13469,-16.16334 7.68867,-2.11267 15.30734,-4.34533 22.83867,-6.974 4.75467,-1.65933 9.67268,-3.45 14.13801,-5.788 -7.77867,1.42 -15.50934,3.14533 -23.28934,4.598 -13.23601,2.47067 -26.49335,5.04 -39.52202,8.46734 -6.58201,1.73066 -13.33868,3.54266 -19.63201,6.15733 -4.39067,1.82467 -8.77667,3.83067 -12.900677,6.20134 -2.999334,1.724 -5.814002,3.71667 -8.782671,5.47534 -0.29,-0.51801 -0.167333,-0.56801 -0.014,-1.13667 0.986001,-3.646 6.115337,-6.64601 9.253338,-8.38667 8.362,-4.64001 17.30134,-7.56134 26.46801,-10.12601 12.13934,-3.39733 24.56335,-5.98267 36.94936,-8.312 10.6,-1.994 21.22534,-3.72334 31.64334,-6.57201 9.56801,-2.616 18.82401,-6.12733 28.26135,-9.152 16.74268,-5.366 33.64535,-10.20534 50.59869,-14.85334 13.27201,-3.63867 26.31935,-7.35867 39.96469,-9.46867 13.54001,-2.09334 27.68868,-2.378 40.95135,1.496 7.46467,2.18 15.71935,5.904 19.61468,13.04001 2.69734,4.94266 2.38334,10.89333 0.778,16.13934 -3.934,12.85667 -15.25067,22.39134 -26.72868,28.45001 -4.124,2.17667 -8.482,3.87534 -12.86667,5.442 -2.75734,0.98467 -5.5,2.004 -8.38267,2.568 1.678,6.45801 0.50266,12.55601 -2.89467,18.26001 -3.79,6.36401 -9.12401,10.56868 -16.21001,12.63668 -0.136,0.04 -1.08867,0.296 -1.09733,0.31333 -0.09,0.19067 0.33533,2.33333 0.388,2.67467 0.35333,2.29533 0.50333,4.488 0.56333,6.80534 0.74533,-1.04801 1.328,-2.50334 1.66134,-3.74201 0.23533,-0.874 0.40733,-3.00733 1.13066,-3.43867 0.89134,0.79001 1.27534,1.44267 1.33867,2.64867 0.178,3.38134 -1.67667,5.85734 -3.87067,8.22067 l -0.72533,0.72 c 1.28733,6.46267 2.50733,12.90334 3.59,19.40535 0.79,4.744 1.11467,10.47734 2.84333,14.95467 0.76534,1.98067 2.44534,3.80934 3.94601,5.29 4.44466,-1.85533 9.012,-2.704 13.652,-0.87266 3.49334,1.37933 6.55267,4.45067 7.98267,7.914 1.40467,3.40134 1.2,6.60467 -0.24933,9.97667 -0.932,2.16867 -2.24133,4.128 -3.728,5.95401 -4.97867,6.11266 -11.04801,11.456 -16.46001,17.18934 -9.04667,9.58334 -17.38934,20.00334 -27.72668,28.26734 -6.04334,4.83201 -12.62001,8.75268 -19.84868,11.54734 -7.50667,2.90201 -16.90667,4.94801 -24.96534,3.78267 3.62667,-1.904 7.596,-2.07867 11.53267,-2.99133 6.29467,-1.45934 12.45467,-3.414 18.23401,-6.33201 5.382,-2.71666 10.38,-5.93867 14.96401,-9.864 9.20133,-7.87934 16.97734,-17.48068 25.25201,-26.30935 5.19267,-5.54 11.15,-10.82467 15.78401,-16.81201 1.53066,-1.97733 2.78466,-4.162 3.52,-6.564 0.73933,-2.41733 1.17133,-5.06933 -0.13067,-7.37467 -1.386,-2.454 -4.29467,-4.84267 -7.02067,-5.59934 -5.35133,-1.486 -11.998,2.02934 -16.42867,4.71401 -6.09934,3.69533 -11.47201,8.48 -16.77668,13.21667 -10.27467,9.174 -20.11268,18.97734 -29.00468,29.50868 -3.38667,4.012 -6.67867,8.14201 -9.93734,12.25801 -2.274,2.87067 -4.57067,7.17133 -7.68934,9.08867 -5.28466,3.24867 -14.11934,2.506 -19.89267,1.09 -10.32134,-2.532 -19.71135,-9.20801 -25.18001,-18.34401 -5.99334,-10.01334 -7.01934,-21.95334 -7.51401,-33.34935 -0.264,-6.08467 -0.47533,-12.17934 -0.66267,-18.26734 l -0.296,0.14 c -2.068,0.95933 -5.41266,2.35 -7.68933,1.62467 -0.618,-0.19734 -1.11067,-0.626 -1.388,-1.21267 -0.40267,-0.85134 -0.36467,-1.59067 0.0153,-2.45 1.68933,-3.828 6.12934,-6.88067 9.34934,-9.31667 3.92067,-2.96601 7.95667,-5.76534 11.836,-8.78601 1.416,-1.10267 3.38601,-2.29067 4.33934,-3.84667 -2.91467,1.672 -5.38867,3.89334 -8.096,5.86134 -3.50001,2.544 -7.20801,4.90733 -10.85668,7.23467 -0.89,0.568 -3.23866,2.42 -4.16267,2.18467 -0.39466,-0.75134 -0.57066,-0.82467 -0.34733,-1.67334 3.828,-3.47267 8.95867,-6.15133 13.29534,-8.99867 3.738,-2.45467 6.91334,-5.358 11.08534,-7.112 1.924,-0.80867 3.35934,-0.596 5.30467,-0.892 3.14733,-0.47867 5.89534,-1.83934 9.20134,-1.71134 5.29,0.20534 10.762,3.65467 15.55067,5.70734 4.19734,1.79867 8.73801,3.606 13.14267,4.81734 1.79934,-2.48067 2.96867,-5.54534 4.16001,-8.36534 2.55866,-6.05534 4.71133,-12.33334 6.17933,-18.74734 2.00134,-8.74934 3.08934,-17.69001 5.05934,-26.43268 l -7.83867,1.10466 c -0.0453,0.87134 0.284,1.80867 0.41267,2.67867 0.18933,1.278 0.26866,2.58534 0.39333,3.872 0.724,7.47534 -0.518,15.14268 -6.346,20.39068 -5.03867,4.53733 -12.51068,6.76934 -19.23735,6.36467 -7.83467,-0.47067 -14.17334,-3.956 -19.36867,-9.81401 -2.07734,-2.342 -3.77467,-4.918 -5.31867,-7.63533 -1.042,-1.83334 -1.99467,-3.77067 -2.898,-5.67801 -0.31667,-0.66866 -0.748,-2.09933 -1.272,-2.57 l -6.65867,1.158 c 1.856,5.94201 3.61466,11.99934 2.83933,18.30801 -0.34067,2.776 -1.308,5.43867 -2.44133,7.97934 -0.20667,0.46267 -0.96067,1.66267 -0.9,1.83733 0.136,0.39067 2.36466,1.86934 2.77266,2.09401 4.87067,2.68133 11.06734,0.526 16.18134,-0.44667 1.35001,-0.25667 2.93867,-0.64334 4.31934,-0.56934 0.54667,0.0293 0.354,-0.0787 0.61,0.40601 -2.36133,2.90266 -11.45401,4.73533 -15.26667,5.14333 -1.92334,0.206 -3.38001,0.20067 -5.22134,-0.49667 l -0.338,-0.12533 c -1.70067,-0.66533 -3.188,-2.354 -4.482,-3.61133 -4.26734,3.07133 -9.50001,4.88 -14.82268,4.09 -8.02267,-1.19134 -15.11267,-7.66934 -19.65001,-14.03401 -2.83533,-3.97667 -5.07467,-8.516 -6.90267,-13.03801 -0.83933,-2.076 -1.78133,-4.29466 -2.214,-6.5 0.622,-0.56733 0.81534,-0.602 1.60534,-0.792 0.686,0.27867 0.95066,0.70667 1.32133,1.316 0.93467,1.53734 1.56267,3.362 2.32134,5 1.19866,2.58734 2.524,5.13201 3.944,7.60467 5.288,9.21468 15.00067,20.59468 26.86334,15.67335 3.64134,-1.51067 6.30467,-4.12467 7.75534,-7.79134 1.49934,-3.79067 1.90867,-10.32467 0.218,-14.05868 -0.118,-0.26133 -0.24133,-0.52666 -0.45133,-0.726 z"
     id="path938"
     style="fill:#002255;stroke-width:0.666667" />
  <path
     fill="white"
     transform="scale(0.666667 0.666667)"
     d="M329.363 398.812L329.968 398.7C332.688 401.093 336.259 402.456 339.375 404.263C344.194 407.057 348.735 410.314 353.614 413.026C359.683 416.4 366.039 418.624 372.57 420.856C367.659 422.567 362.039 423.177 357.241 420.714C356.119 420.138 354.856 418.954 353.74 418.54C353.07 418.291 350.229 418.76 349.346 418.812C341.645 419.263 333.966 419.623 326.315 420.669C325.843 421.406 325.219 422.608 324.446 423.045C323.545 423.555 321.967 423.746 320.956 423.979C318.284 424.595 315.605 425.177 312.934 425.8C309.686 426.558 306.526 427.502 303.353 428.529C303.26 430.523 304.128 432.978 304.459 434.973C305.09 438.773 305.512 442.59 305.95 446.416C306.945 455.123 307.504 463.803 308.891 472.48C311.833 490.89 318.049 508.079 329.724 522.775C333.036 526.957 337.404 530.54 341.416 534.023C336.893 531.9 332.981 529.479 329.082 526.332C323.524 521.846 318.14 516.409 314.439 510.272C309.948 502.822 307.369 493.921 305.808 485.423C302.425 467.005 303.307 448.063 301.41 429.472C295.908 431.373 291.202 434.643 285.873 436.907C286.899 435.296 288.69 433.744 290.046 432.37C300.1 422.189 313.459 416.108 323.578 406.105C325.715 403.993 327.895 401.989 329.176 399.228L329.363 398.812Z"
     id="path940" />
  <path
     fill="#232021"
     d="m 226.47808,260.14416 c 0.98436,-0.0992 1.48805,-0.19845 2.54403,-0.0576 8.04627,1.06567 22.33885,18.48152 27.37066,23.82177 -13.96274,2.8537 -30.14738,3.06802 -44.56267,4.42342 l -28.37549,3.38356 c 5.80395,-5.9991 12.79172,-11.29769 19.52125,-16.66573 6.68605,-5.33628 14.08292,-12.75032 23.50222,-14.90547 z"
     id="path942"
     style="fill:#002255;stroke-width:2.25256" />
  <path
     fill="white"
     transform="scale(0.666667 0.666667)"
     d="M469.216 291.489C473.991 291.57 478.092 293.197 481.596 296.454C486.607 301.113 490.594 308.344 490.744 315.293C490.936 324.167 486.423 332.666 480.381 338.919C474.683 344.815 468.39 347.895 460.122 347.993C458.332 347.784 456.552 347.563 454.875 346.858C449.893 344.762 447.211 338.809 445.262 334.163C447.602 335.111 449.72 336.382 451.892 337.658C450.221 334.628 448.16 332.027 446.014 329.332C445.572 319.472 447.62 308.624 453.636 300.548C457.648 295.165 462.65 292.46 469.216 291.489Z"
     id="path944" />
  <path
     fill="white"
     transform="scale(0.666667 0.666667)"
     d="M380.036 252.562L380.457 252.451C382.298 253.249 384.863 257.559 386.219 259.228C388.385 261.896 390.666 264.464 393.013 266.972C402.183 276.77 412.918 284.796 422.282 294.361C416.122 294.323 409.913 293.436 403.757 293.086C395.533 292.618 387.288 292.572 379.066 292.002C367.195 291.178 355.287 288.558 343.578 291.943C333.87 294.749 326.049 301.924 321.236 310.691C319.479 313.89 317.874 317.237 316.365 320.559C315.735 321.946 314.67 324.068 314.524 325.581C314.386 327.019 315.487 329.745 315.916 331.214L317.859 336.607C314.648 336.999 311.1 337.886 308.17 339.269L307.835 339.432C304.846 333.618 301.603 327.264 295.689 323.905C290.215 320.796 283.824 322.198 278.148 323.846C285.521 315.296 296.214 310.774 305.732 305.074C311.965 301.341 317.624 296.794 323.773 292.979C327.9 290.419 332.501 288.567 336.7 286.072C342.753 282.477 348.488 278.365 354.242 274.318C363.484 267.817 372.747 261.275 380.036 252.562Z"
     id="path946" />
  <path
     fill="white"
     transform="scale(0.666667 0.666667)"
     d="M356.163 296.424L419.854 300.317C416.864 307.687 415.512 315.191 413.46 322.818C410.07 322.826 406.591 323.113 403.214 323.443C402.066 323.555 399.848 324.167 398.85 323.761C398.317 320.967 397.774 318.225 396.752 315.562C394.564 309.86 391.84 306.643 386.214 304.138C389.858 310.611 392.692 317.326 394.709 324.479L384.252 325.749C376.477 326.926 368.763 328.448 360.994 329.667C354.067 330.753 346.482 331.455 339.75 333.378C338.557 333.719 337.799 334.034 337.044 335.063L337.227 335.897C338.12 336.578 338.767 337.121 339.938 337.208C342.932 337.431 346.619 336.492 349.626 336.081C354.43 335.425 359.261 334.925 364.081 334.397L394.683 330.62L395.112 332.732C396.925 343.346 397.48 354.135 390.832 363.248C386.103 369.728 378.048 373.605 370.275 374.792C360.503 376.285 350.793 373.28 342.917 367.422C332.673 359.802 327.245 347.185 323.465 335.391C322.584 332.643 321.343 329.375 321.087 326.514C320.968 325.19 321.487 323.557 321.879 322.283C323.399 317.353 326.246 312.802 329.649 308.954C337.178 300.444 344.921 297.069 356.163 296.424Z"
     id="path948" />
</svg>
